<?xml version="1.0" encoding="UTF-8"?>
<svg id="_レイヤー_1" data-name="レイヤー 1" xmlns="http://www.w3.org/2000/svg" viewBox="0 0 672.99 671.23">
  <defs>
    <style>
      .cls-1 {
        font-family: TiroTamil, 'Tiro Tamil';
        font-size: 213.13px;
      }

      .cls-1, .cls-2 {
        fill: #827c75;
      }
    </style>
  </defs>
  <text class="cls-1" transform="translate(5.91 579.59)"><tspan x="0" y="0">ATOM</tspan></text>
  <g>
    <path class="cls-2" d="M179.93,254.9c0,.1-.09.15-.27.15s-.27-.05-.27-.15c-.2-1.8-.82-3.18-1.85-4.15-1.03-.97-2.38-1.45-4.05-1.45h-2.75c-1.5,0-2.52.21-3.05.62-.53.42-.8,1.21-.8,2.38v10.95h4.8c1.8,0,3.1-.29,3.9-.88.8-.58,1.2-1.49,1.2-2.72,0-.07.1-.1.3-.1s.3.03.3.1l-.05,4.15c0,.97.02,1.7.05,2.2l.05,2.5c0,.07-.1.1-.3.1s-.3-.03-.3-.1c0-1.47-.42-2.53-1.25-3.17-.83-.65-2.18-.98-4.05-.98h-4.65v10.85c0,1.07.14,1.84.42,2.33.28.48.83.82,1.65,1.02.82.2,2.11.3,3.88.3.07,0,.1.1.1.3s-.03.3-.1.3c-1.37,0-2.43-.02-3.2-.05l-4.65-.05-3.4.05c-.63.03-1.5.05-2.6.05-.1,0-.15-.1-.15-.3s.05-.3.15-.3c1.23,0,2.14-.08,2.73-.25.58-.17.98-.49,1.2-.97.22-.48.32-1.22.32-2.22v-23.15c0-1-.1-1.73-.3-2.2-.2-.47-.58-.79-1.15-.97-.57-.18-1.47-.28-2.7-.28-.07,0-.1-.1-.1-.3s.03-.3.1-.3h20.3c.3,0,.45.15.45.45l.1,6.25Z"/>
    <path class="cls-2" d="M217.83,279.15c0,.2-.07.3-.2.3-.63,0-1.62-.03-2.95-.1-1.33-.07-2.32-.1-2.95-.1-.77,0-1.72.03-2.85.1-1.07.07-1.9.1-2.5.1-.13,0-.2-.1-.2-.3s.07-.3.2-.3c1.2,0,2.06-.11,2.58-.32s.78-.61.78-1.18c0-.5-.23-1.25-.7-2.25l-4.3-9h-11.95l-2.95,6.85c-.43,1-.65,1.92-.65,2.75,0,2.1,1.62,3.15,4.85,3.15.17,0,.25.1.25.3s-.08.3-.25.3c-.6,0-1.47-.03-2.6-.1-1.27-.07-2.37-.1-3.3-.1-.83,0-1.85.03-3.05.1-1,.07-1.85.1-2.55.1-.17,0-.25-.1-.25-.3s.08-.3.25-.3c.93,0,1.73-.17,2.38-.52.65-.35,1.27-.98,1.88-1.88.6-.9,1.27-2.22,2-3.95l10.55-24.7c.07-.1.2-.15.4-.15s.32.05.35.15l11.9,24.8c1.13,2.43,2.1,4.08,2.9,4.95.8.87,1.72,1.3,2.75,1.3.13,0,.2.1.2.3ZM193.23,265.05h11l-5.8-12.1-5.2,12.1Z"/>
    <path class="cls-2" d="M226.18,257.25c.63.97,1.4,1.78,2.3,2.45s2.17,1.48,3.8,2.45c1.7,1.03,3.03,1.92,4,2.65.97.73,1.79,1.65,2.48,2.75.68,1.1,1.02,2.4,1.02,3.9,0,1.63-.41,3.1-1.22,4.4-.82,1.3-2.01,2.33-3.58,3.08-1.57.75-3.42,1.12-5.55,1.12-2.7,0-5.1-.6-7.2-1.8-.17-.1-.28-.22-.35-.35-.07-.13-.12-.33-.15-.6l-.55-7c-.03-.13.04-.22.22-.25.18-.03.29.02.33.15.67,2.47,1.72,4.58,3.15,6.33,1.43,1.75,3.33,2.62,5.7,2.62,1.63,0,3-.43,4.1-1.3,1.1-.87,1.65-2.28,1.65-4.25,0-1.5-.33-2.79-1-3.88-.67-1.08-1.47-2-2.42-2.75s-2.24-1.61-3.88-2.57c-1.63-1.03-2.9-1.89-3.8-2.58-.9-.68-1.67-1.55-2.3-2.6-.63-1.05-.95-2.29-.95-3.72,0-1.7.45-3.14,1.35-4.33.9-1.18,2.08-2.07,3.55-2.65,1.47-.58,3.02-.88,4.65-.88,2.07,0,4.05.38,5.95,1.15.5.23.75.53.75.9l.3,6c0,.13-.09.22-.27.25-.18.03-.29-.02-.33-.15-.33-1.77-1.08-3.43-2.25-5-1.17-1.57-2.85-2.35-5.05-2.35-1.77,0-3.11.52-4.03,1.55-.92,1.03-1.38,2.33-1.38,3.9,0,1.27.32,2.38.95,3.35Z"/>
    <path class="cls-2" d="M252.98,277.65c.2.47.58.78,1.15.95.57.17,1.47.25,2.7.25.07,0,.1.1.1.3s-.03.3-.1.3c-1.03,0-1.85-.02-2.45-.05l-3.6-.05-3.45.05c-.63.03-1.48.05-2.55.05-.1,0-.15-.1-.15-.3s.05-.3.15-.3c1.23,0,2.13-.08,2.7-.25.57-.17.96-.49,1.17-.97.22-.48.33-1.22.33-2.22v-23.15c0-1-.11-1.73-.33-2.2-.22-.47-.61-.79-1.17-.97-.57-.18-1.47-.28-2.7-.28-.1,0-.15-.1-.15-.3s.05-.3.15-.3l2.55.05c1.4.07,2.55.1,3.45.1.97,0,2.18-.03,3.65-.1l2.4-.05c.07,0,.1.1.1.3s-.03.3-.1.3c-1.2,0-2.09.1-2.67.3-.58.2-.97.54-1.17,1.03-.2.48-.3,1.22-.3,2.22v23.05c0,1.03.1,1.78.3,2.25Z"/>
    <path class="cls-2" d="M269.2,277.87c-2.42-1.45-4.28-3.42-5.6-5.9-1.32-2.48-1.97-5.19-1.97-8.12,0-3.43.87-6.38,2.6-8.82,1.73-2.45,3.96-4.29,6.67-5.53,2.72-1.23,5.49-1.85,8.33-1.85,3.17,0,5.95.74,8.35,2.22,2.4,1.48,4.24,3.44,5.52,5.88,1.28,2.43,1.92,5.02,1.92,7.75,0,3.03-.8,5.82-2.4,8.35-1.6,2.53-3.74,4.53-6.42,6-2.68,1.47-5.59,2.2-8.73,2.2s-5.86-.72-8.27-2.17ZM285.15,277.3c1.75-1.1,3.13-2.71,4.15-4.83,1.02-2.12,1.53-4.64,1.53-7.57,0-3.1-.56-5.87-1.68-8.3-1.12-2.43-2.71-4.33-4.77-5.7-2.07-1.37-4.47-2.05-7.2-2.05-3.57,0-6.35,1.18-8.35,3.53s-3,5.59-3,9.72c0,3.13.57,5.98,1.7,8.55s2.72,4.59,4.75,6.07c2.03,1.48,4.35,2.23,6.95,2.23,2.2,0,4.17-.55,5.92-1.65Z"/>
    <path class="cls-2" d="M332.98,248.5c0,.2-.05.3-.15.3-1.37,0-2.38.41-3.02,1.23-.65.82-.98,2.09-.98,3.82v26.2c0,.1-.08.17-.25.2s-.28.02-.35-.05l-23.3-27.9-.15-.2v21.75c0,1.73.32,3,.95,3.8.63.8,1.62,1.2,2.95,1.2.1,0,.15.1.15.3s-.05.3-.15.3c-.8,0-1.43-.02-1.9-.05l-2.55-.05-2.65.05c-.5.03-1.22.05-2.15.05-.07,0-.1-.1-.1-.3s.03-.3.1-.3c1.43,0,2.47-.4,3.12-1.2.65-.8.97-2.07.97-3.8v-23.05c-1.37-1.33-2.75-2-4.15-2-.1,0-.15-.1-.15-.3s.05-.3.15-.3l1.85.05c.4.03.97.05,1.7.05l2.35-.05c.27-.03.62-.05,1.05-.05.27,0,.46.06.58.17.12.12.31.38.58.78.4.6.8,1.15,1.2,1.65l18.9,22.9v-19.85c0-1.73-.3-3.01-.9-3.82-.6-.82-1.58-1.23-2.95-1.23-.07,0-.1-.1-.1-.3s.03-.3.1-.3l1.95.05c1.07.07,1.92.1,2.55.1s1.48-.03,2.55-.1l2.05-.05c.1,0,.15.1.15.3Z"/>
    <path class="cls-2" d="M386.53,279.15c0,.2-.05.3-.15.3-1.07,0-1.92-.02-2.55-.05l-3.45-.05-3.35.05c-.53.03-1.28.05-2.25.05-.07,0-.1-.1-.1-.3s.03-.3.1-.3c1.13,0,1.97-.09,2.5-.27.53-.18.89-.51,1.08-.98.18-.47.24-1.2.17-2.2l-.95-22.25-11.2,25.95c-.07.13-.2.2-.4.2-.17,0-.32-.07-.45-.2l-12.35-25.85-.4,20.6c-.03,1.77.27,3.04.92,3.83.65.78,1.74,1.17,3.28,1.17.07,0,.1.1.1.3s-.03.3-.1.3c-.93,0-1.65-.02-2.15-.05l-2.7-.05-2.7.05c-.47.03-1.13.05-2,.05-.1,0-.15-.1-.15-.3s.05-.3.15-.3c1.37,0,2.38-.4,3.05-1.2.67-.8,1.02-2.07,1.05-3.8l.45-22.75c-1-1.53-2.4-2.3-4.2-2.3-.1,0-.15-.1-.15-.3s.05-.3.15-.3l1.95.05c.37.03.85.05,1.45.05.67,0,1.23-.02,1.68-.05.45-.03.81-.05,1.07-.05.43,0,.78.15,1.05.45.27.3.68,1.02,1.25,2.15l11.15,23,10.6-24.35c.37-.83.87-1.25,1.5-1.25.17,0,.42.02.75.05.33.03.77.05,1.3.05l2.5-.05c.37-.03.93-.05,1.7-.05.07,0,.1.1.1.3s-.03.3-.1.3c-1.67,0-2.86.26-3.58.78-.72.52-1.06,1.44-1.03,2.77l1.05,23.05c.07,1.03.2,1.78.4,2.25s.58.78,1.12.95c.55.17,1.44.25,2.67.25.1,0,.15.1.15.3Z"/>
    <path class="cls-2" d="M397.55,277.87c-2.42-1.45-4.28-3.42-5.6-5.9-1.32-2.48-1.97-5.19-1.97-8.12,0-3.43.87-6.38,2.6-8.82,1.73-2.45,3.96-4.29,6.67-5.53,2.72-1.23,5.49-1.85,8.33-1.85,3.17,0,5.95.74,8.35,2.22,2.4,1.48,4.24,3.44,5.52,5.88,1.28,2.43,1.92,5.02,1.92,7.75,0,3.03-.8,5.82-2.4,8.35-1.6,2.53-3.74,4.53-6.42,6-2.68,1.47-5.59,2.2-8.73,2.2s-5.86-.72-8.27-2.17ZM413.5,277.3c1.75-1.1,3.13-2.71,4.15-4.83,1.02-2.12,1.53-4.64,1.53-7.57,0-3.1-.56-5.87-1.68-8.3-1.12-2.43-2.71-4.33-4.77-5.7-2.07-1.37-4.47-2.05-7.2-2.05-3.57,0-6.35,1.18-8.35,3.53s-3,5.59-3,9.72c0,3.13.57,5.98,1.7,8.55s2.72,4.59,4.75,6.07c2.03,1.48,4.35,2.23,6.95,2.23,2.2,0,4.17-.55,5.92-1.65Z"/>
    <path class="cls-2" d="M437.73,279.5c-.5-.03-1.11-.07-1.83-.1-.72-.03-1.51-.05-2.38-.05l-3.45.05c-.63.03-1.48.05-2.55.05-.07,0-.1-.1-.1-.3s.03-.3.1-.3c1.23,0,2.13-.08,2.7-.25.57-.17.96-.49,1.17-.97.22-.48.33-1.22.33-2.22v-23.15c0-1-.1-1.73-.3-2.2-.2-.47-.58-.79-1.15-.97-.57-.18-1.47-.28-2.7-.28-.07,0-.1-.1-.1-.3s.03-.3.1-.3l2.5.05c1.47.07,2.62.1,3.45.1,1.27,0,2.52-.05,3.75-.15,1.6-.07,2.67-.1,3.2-.1,3.47,0,6.53.67,9.2,2,2.67,1.33,4.73,3.15,6.2,5.45s2.2,4.88,2.2,7.75c0,3.23-.76,6.09-2.28,8.58-1.52,2.48-3.57,4.4-6.15,5.75-2.58,1.35-5.41,2.03-8.48,2.03-1,0-2.15-.05-3.45-.15ZM447.5,277.17c1.98-1.12,3.53-2.77,4.65-4.95,1.12-2.18,1.67-4.79,1.67-7.82s-.53-5.53-1.6-7.88c-1.07-2.35-2.58-4.21-4.53-5.58-1.95-1.37-4.21-2.05-6.78-2.05-1.43,0-2.53.08-3.3.25s-1.33.49-1.7.97c-.37.48-.55,1.22-.55,2.22v22.5c0,1.47.36,2.5,1.08,3.1.72.6,2.12.9,4.22.9,2.57,0,4.84-.56,6.83-1.67Z"/>
    <path class="cls-2" d="M484.78,271.82c.2.02.3.08.3.17-.3,2.17-.45,4.4-.45,6.7,0,.27-.06.46-.17.58-.12.12-.33.17-.62.17h-21.15c-.07,0-.1-.1-.1-.3s.03-.3.1-.3c1.23,0,2.13-.08,2.7-.25.57-.17.95-.49,1.15-.97.2-.48.3-1.22.3-2.22v-23.15c0-1-.1-1.73-.3-2.2-.2-.47-.58-.79-1.15-.97-.57-.18-1.47-.28-2.7-.28-.07,0-.1-.1-.1-.3s.03-.3.1-.3h20.3c.3,0,.45.15.45.45l.1,6.25c0,.1-.09.15-.28.15s-.27-.05-.27-.15c-.2-1.8-.82-3.18-1.85-4.15s-2.38-1.45-4.05-1.45h-2.75c-1.57,0-2.6.22-3.1.65-.5.43-.75,1.27-.75,2.5v10.2h5.75c1.67,0,2.88-.28,3.62-.85.75-.57,1.12-1.48,1.12-2.75,0-.07.1-.1.3-.1s.3.03.3.1l-.05,4.15c0,.97.02,1.7.05,2.2l.05,2.5c0,.07-.1.1-.3.1s-.3-.03-.3-.1c0-1.47-.38-2.53-1.15-3.18-.77-.65-2.02-.97-3.75-.97h-5.65v11.45c0,.87.1,1.52.3,1.95s.55.74,1.05.92c.5.18,1.27.27,2.3.27h3.55c1.77,0,3.23-.56,4.4-1.67,1.17-1.12,1.97-2.69,2.4-4.72,0-.1.1-.14.3-.12Z"/>
    <path class="cls-2" d="M497.03,275.2c0,.93.09,1.62.28,2.05.18.43.53.72,1.05.88.52.15,1.34.22,2.47.22h4.8c2,0,3.64-.61,4.93-1.82,1.28-1.22,2.12-2.88,2.52-4.98,0-.1.09-.14.28-.12.18.02.27.08.27.17-.3,2.83-.45,5.2-.45,7.1,0,.27-.05.46-.15.58s-.3.17-.6.17h-23.2c-.07,0-.1-.1-.1-.3s.03-.3.1-.3c1.23,0,2.13-.08,2.7-.25.57-.17.95-.49,1.15-.97.2-.48.3-1.22.3-2.22v-23.15c0-1-.1-1.73-.3-2.2-.2-.47-.58-.79-1.15-.97-.57-.18-1.47-.28-2.7-.28-.07,0-.1-.1-.1-.3s.03-.3.1-.3l2.5.05c1.4.07,2.55.1,3.45.1.97,0,2.15-.03,3.55-.1l2.45-.05c.07,0,.1.1.1.3s-.03.3-.1.3c-1.2,0-2.09.09-2.68.28-.58.18-.97.52-1.17,1s-.3,1.22-.3,2.22v22.9Z"/>
    <path class="cls-2" d="M237.95,298.5c0,.2-.05.3-.15.3-2.37,0-4.12,1.43-5.25,4.3l-10.4,26.3c-.04.13-.22.2-.55.2-.27,0-.45-.07-.55-.2l-6.5-14.05-5.55,14.05c-.03.13-.22.2-.55.2-.27,0-.45-.07-.55-.2l-12.45-27.05c-.63-1.37-1.24-2.3-1.83-2.8-.58-.5-1.38-.75-2.38-.75-.1,0-.15-.1-.15-.3s.05-.3.15-.3l1.7.05c.93.07,1.72.1,2.35.1,1.37,0,2.78-.03,4.25-.1.5-.03,1.15-.05,1.95-.05.1,0,.15.1.15.3s-.05.3-.15.3c-.97,0-1.68.11-2.12.33-.45.22-.68.59-.68,1.12,0,.5.2,1.2.6,2.1l10.35,22.2,4.25-10.65-5.35-11.55c-.57-1.27-1.15-2.17-1.75-2.72-.6-.55-1.33-.83-2.2-.83-.1,0-.15-.1-.15-.3s.05-.3.15-.3l1.7.05c.8.07,1.52.1,2.15.1,1.13,0,2.23-.03,3.3-.1.33-.03.78-.05,1.35-.05.1,0,.15.1.15.3s-.05.3-.15.3c-.6,0-1.03.06-1.28.17-.25.12-.38.33-.38.62,0,.37.32,1.28.95,2.75l3.4,7.3,2.7-6.8c.43-1,.65-1.83.65-2.5,0-1.03-.67-1.55-2-1.55-.07,0-.1-.1-.1-.3s.03-.3.1-.3l1.1.05c.6.07,1.33.1,2.2.1.63,0,1.38-.03,2.25-.1l2-.05c.07,0,.1.1.1.3s-.03.3-.1.3c-1.1,0-2.07.33-2.9.98-.83.65-1.55,1.76-2.15,3.32l-3.2,7.95,6.35,13.5,8.55-21.55c.27-.73.4-1.37.4-1.9,0-1.53-1.2-2.3-3.6-2.3-.1,0-.15-.1-.15-.3s.05-.3.15-.3l2.15.05c1.13.07,2.15.1,3.05.1.7,0,1.48-.03,2.35-.1l2.1-.05c.1,0,.15.1.15.3Z"/>
    <path class="cls-2" d="M261.85,321.82c.2.02.3.08.3.17-.3,2.17-.45,4.4-.45,6.7,0,.27-.06.46-.17.58-.12.12-.33.17-.62.17h-21.15c-.07,0-.1-.1-.1-.3s.03-.3.1-.3c1.23,0,2.13-.08,2.7-.25.57-.17.95-.49,1.15-.97.2-.48.3-1.22.3-2.22v-23.15c0-1-.1-1.73-.3-2.2-.2-.47-.58-.79-1.15-.97-.57-.18-1.47-.28-2.7-.28-.07,0-.1-.1-.1-.3s.03-.3.1-.3h20.3c.3,0,.45.15.45.45l.1,6.25c0,.1-.09.15-.28.15s-.27-.05-.27-.15c-.2-1.8-.82-3.18-1.85-4.15s-2.38-1.45-4.05-1.45h-2.75c-1.57,0-2.6.22-3.1.65-.5.43-.75,1.27-.75,2.5v10.2h5.75c1.67,0,2.88-.28,3.62-.85.75-.57,1.12-1.48,1.12-2.75,0-.07.1-.1.3-.1s.3.03.3.1l-.05,4.15c0,.97.02,1.7.05,2.2l.05,2.5c0,.07-.1.1-.3.1s-.3-.03-.3-.1c0-1.47-.38-2.53-1.15-3.18-.77-.65-2.02-.97-3.75-.97h-5.65v11.45c0,.87.1,1.52.3,1.95s.55.74,1.05.92c.5.18,1.27.27,2.3.27h3.55c1.77,0,3.23-.56,4.4-1.67,1.17-1.12,1.97-2.69,2.4-4.72,0-.1.1-.14.3-.12Z"/>
    <path class="cls-2" d="M287.88,314.52c1.62,1.55,2.42,3.46,2.42,5.72,0,1.77-.45,3.37-1.35,4.8-.9,1.43-2.12,2.56-3.67,3.38-1.55.82-3.29,1.23-5.22,1.23-1.07,0-2.23-.05-3.5-.15-.47-.03-1.02-.07-1.65-.1-.63-.03-1.35-.05-2.15-.05l-3.45.05c-.63.03-1.48.05-2.55.05-.07,0-.1-.1-.1-.3s.03-.3.1-.3c1.2,0,2.09-.09,2.67-.27.58-.18.98-.51,1.2-.98.22-.47.32-1.2.32-2.2v-23.15c0-1-.1-1.73-.3-2.2-.2-.47-.58-.79-1.15-.97-.57-.18-1.45-.28-2.65-.28-.1,0-.15-.1-.15-.3s.05-.3.15-.3l2.45.05c1.4.07,2.55.1,3.45.1.6,0,1.16-.02,1.67-.05.52-.03.96-.07,1.33-.1,1.03-.1,2.02-.15,2.95-.15,2.87,0,5.02.6,6.45,1.8,1.43,1.2,2.15,2.8,2.15,4.8,0,1.6-.52,3.02-1.55,4.27-1.03,1.25-2.47,2.23-4.3,2.92,2.67.23,4.81,1.12,6.43,2.68ZM275.83,299.07c-.42.15-.72.47-.92.97s-.3,1.27-.3,2.3v9.5l2.25.05c2.3,0,4.01-.63,5.12-1.9,1.12-1.27,1.67-2.93,1.67-5,0-1.87-.48-3.36-1.45-4.47s-2.47-1.68-4.5-1.68c-.83,0-1.46.08-1.88.23ZM284.65,326.82c1.17-1.25,1.75-3.03,1.75-5.33,0-2.53-.72-4.58-2.17-6.12s-3.46-2.34-6.03-2.38c-.93-.03-2.13,0-3.6.1v12.3c0,.83.12,1.48.38,1.95.25.47.71.81,1.38,1.03.67.22,1.65.33,2.95.33,2.4,0,4.18-.62,5.35-1.88Z"/>
    <path class="cls-2" d="M316.45,329.5c-.5-.03-1.11-.07-1.83-.1-.72-.03-1.51-.05-2.38-.05l-3.45.05c-.63.03-1.48.05-2.55.05-.07,0-.1-.1-.1-.3s.03-.3.1-.3c1.23,0,2.13-.08,2.7-.25.57-.17.96-.49,1.17-.97.22-.48.33-1.22.33-2.22v-23.15c0-1-.1-1.73-.3-2.2-.2-.47-.58-.79-1.15-.97-.57-.18-1.47-.28-2.7-.28-.07,0-.1-.1-.1-.3s.03-.3.1-.3l2.5.05c1.47.07,2.62.1,3.45.1,1.27,0,2.52-.05,3.75-.15,1.6-.07,2.67-.1,3.2-.1,3.47,0,6.53.67,9.2,2,2.67,1.33,4.73,3.15,6.2,5.45s2.2,4.88,2.2,7.75c0,3.23-.76,6.09-2.28,8.58-1.52,2.48-3.57,4.4-6.15,5.75-2.58,1.35-5.41,2.03-8.48,2.03-1,0-2.15-.05-3.45-.15ZM326.23,327.17c1.98-1.12,3.53-2.77,4.65-4.95,1.12-2.18,1.67-4.79,1.67-7.82s-.53-5.53-1.6-7.88c-1.07-2.35-2.58-4.21-4.53-5.58-1.95-1.37-4.21-2.05-6.78-2.05-1.43,0-2.53.08-3.3.25s-1.33.49-1.7.97c-.37.48-.55,1.22-.55,2.22v22.5c0,1.47.36,2.5,1.08,3.1.72.6,2.12.9,4.22.9,2.57,0,4.84-.56,6.83-1.67Z"/>
    <path class="cls-2" d="M363.5,321.82c.2.02.3.08.3.17-.3,2.17-.45,4.4-.45,6.7,0,.27-.06.46-.17.58-.12.12-.33.17-.62.17h-21.15c-.07,0-.1-.1-.1-.3s.03-.3.1-.3c1.23,0,2.13-.08,2.7-.25.57-.17.95-.49,1.15-.97.2-.48.3-1.22.3-2.22v-23.15c0-1-.1-1.73-.3-2.2-.2-.47-.58-.79-1.15-.97-.57-.18-1.47-.28-2.7-.28-.07,0-.1-.1-.1-.3s.03-.3.1-.3h20.3c.3,0,.45.15.45.45l.1,6.25c0,.1-.09.15-.28.15s-.27-.05-.27-.15c-.2-1.8-.82-3.18-1.85-4.15s-2.38-1.45-4.05-1.45h-2.75c-1.57,0-2.6.22-3.1.65-.5.43-.75,1.27-.75,2.5v10.2h5.75c1.67,0,2.88-.28,3.62-.85.75-.57,1.12-1.48,1.12-2.75,0-.07.1-.1.3-.1s.3.03.3.1l-.05,4.15c0,.97.02,1.7.05,2.2l.05,2.5c0,.07-.1.1-.3.1s-.3-.03-.3-.1c0-1.47-.38-2.53-1.15-3.18-.77-.65-2.02-.97-3.75-.97h-5.65v11.45c0,.87.1,1.52.3,1.95s.55.74,1.05.92c.5.18,1.27.27,2.3.27h3.55c1.77,0,3.23-.56,4.4-1.67,1.17-1.12,1.97-2.69,2.4-4.72,0-.1.1-.14.3-.12Z"/>
    <path class="cls-2" d="M374.7,307.25c.63.97,1.4,1.78,2.3,2.45s2.17,1.48,3.8,2.45c1.7,1.03,3.03,1.92,4,2.65.97.73,1.79,1.65,2.48,2.75.68,1.1,1.02,2.4,1.02,3.9,0,1.63-.41,3.1-1.22,4.4-.82,1.3-2.01,2.33-3.58,3.08-1.57.75-3.42,1.12-5.55,1.12-2.7,0-5.1-.6-7.2-1.8-.17-.1-.28-.22-.35-.35-.07-.13-.12-.33-.15-.6l-.55-7c-.03-.13.04-.22.22-.25.18-.03.29.02.33.15.67,2.47,1.72,4.58,3.15,6.33,1.43,1.75,3.33,2.62,5.7,2.62,1.63,0,3-.43,4.1-1.3,1.1-.87,1.65-2.28,1.65-4.25,0-1.5-.33-2.79-1-3.88-.67-1.08-1.47-2-2.42-2.75s-2.24-1.61-3.88-2.57c-1.63-1.03-2.9-1.89-3.8-2.58-.9-.68-1.67-1.55-2.3-2.6-.63-1.05-.95-2.29-.95-3.72,0-1.7.45-3.14,1.35-4.33.9-1.18,2.08-2.07,3.55-2.65,1.47-.58,3.02-.88,4.65-.88,2.07,0,4.05.38,5.95,1.15.5.23.75.53.75.9l.3,6c0,.13-.09.22-.27.25-.18.03-.29-.02-.33-.15-.33-1.77-1.08-3.43-2.25-5-1.17-1.57-2.85-2.35-5.05-2.35-1.77,0-3.11.52-4.03,1.55-.92,1.03-1.38,2.33-1.38,3.9,0,1.27.32,2.38.95,3.35Z"/>
    <path class="cls-2" d="M401.5,327.65c.2.47.58.78,1.15.95.57.17,1.47.25,2.7.25.07,0,.1.1.1.3s-.03.3-.1.3c-1.03,0-1.85-.02-2.45-.05l-3.6-.05-3.45.05c-.63.03-1.48.05-2.55.05-.1,0-.15-.1-.15-.3s.05-.3.15-.3c1.23,0,2.13-.08,2.7-.25.57-.17.96-.49,1.17-.97.22-.48.33-1.22.33-2.22v-23.15c0-1-.11-1.73-.33-2.2-.22-.47-.61-.79-1.17-.97-.57-.18-1.47-.28-2.7-.28-.1,0-.15-.1-.15-.3s.05-.3.15-.3l2.55.05c1.4.07,2.55.1,3.45.1.97,0,2.18-.03,3.65-.1l2.4-.05c.07,0,.1.1.1.3s-.03.3-.1.3c-1.2,0-2.09.1-2.67.3-.58.2-.97.54-1.17,1.03-.2.48-.3,1.22-.3,2.22v23.05c0,1.03.1,1.78.3,2.25Z"/>
    <path class="cls-2" d="M418.6,327.85c-2.73-1.47-4.83-3.44-6.28-5.92-1.45-2.48-2.17-5.22-2.17-8.22,0-3.2.83-6.02,2.47-8.45,1.65-2.43,3.91-4.31,6.78-5.62,2.87-1.32,6.08-1.97,9.65-1.97,1.77,0,3.43.16,4.98.47,1.55.32,2.83.78,3.83,1.38.27.13.42.24.47.33s.09.34.12.77l.65,6.05c0,.1-.09.17-.28.2-.18.03-.29,0-.33-.1-.73-2.43-1.97-4.42-3.7-5.95-1.73-1.53-4.03-2.3-6.9-2.3-2.53,0-4.83.58-6.88,1.75-2.05,1.17-3.67,2.85-4.85,5.05s-1.77,4.75-1.77,7.65.58,5.59,1.75,8.08c1.17,2.48,2.89,4.48,5.17,6s5.03,2.27,8.22,2.27c2.3,0,3.91-.44,4.83-1.33.92-.88,1.38-2.47,1.38-4.77,0-1.73-.11-2.94-.33-3.62-.22-.68-.68-1.14-1.4-1.38-.72-.23-1.99-.35-3.83-.35-.2,0-.3-.13-.3-.4,0-.1.02-.19.08-.28.05-.08.11-.12.17-.12,2.67.17,4.82.25,6.45.25s3.23-.05,5-.15c.13,0,.21.12.22.35.02.23-.06.35-.22.35-.8-.03-1.36.08-1.68.33s-.52.76-.62,1.53c-.1.77-.15,2.1-.15,4,0,1.5.06,2.57.17,3.2.12.63.17,1.03.17,1.2,0,.2-.03.33-.1.4s-.22.13-.45.2c-4.13.9-7.7,1.35-10.7,1.35-3.7,0-6.92-.73-9.65-2.2Z"/>
    <path class="cls-2" d="M479.05,298.5c0,.2-.05.3-.15.3-1.37,0-2.38.41-3.02,1.23-.65.82-.98,2.09-.98,3.82v26.2c0,.1-.08.17-.25.2s-.28.02-.35-.05l-23.3-27.9-.15-.2v21.75c0,1.73.32,3,.95,3.8.63.8,1.62,1.2,2.95,1.2.1,0,.15.1.15.3s-.05.3-.15.3c-.8,0-1.43-.02-1.9-.05l-2.55-.05-2.65.05c-.5.03-1.22.05-2.15.05-.07,0-.1-.1-.1-.3s.03-.3.1-.3c1.43,0,2.47-.4,3.12-1.2.65-.8.97-2.07.97-3.8v-23.05c-1.37-1.33-2.75-2-4.15-2-.1,0-.15-.1-.15-.3s.05-.3.15-.3l1.85.05c.4.03.97.05,1.7.05l2.35-.05c.27-.03.62-.05,1.05-.05.27,0,.46.06.58.17.12.12.31.38.58.78.4.6.8,1.15,1.2,1.65l18.9,22.9v-19.85c0-1.73-.3-3.01-.9-3.82-.6-.82-1.58-1.23-2.95-1.23-.07,0-.1-.1-.1-.3s.03-.3.1-.3l1.95.05c1.07.07,1.92.1,2.55.1s1.48-.03,2.55-.1l2.05-.05c.1,0,.15.1.15.3Z"/>
  </g>
</svg>